# AST/ASF file generated using VICON BodyLanguage
# -----------------------------------------------
:version 1.10
:name VICON
:units
  mass 1.0
  length 0.45
  angle deg
:documentation
   .ast/.asf automatically generated from VICON data using
   VICON BodyBuilder and BodyLanguage model FoxedUp or BRILLIANT.MOD
:root
   order TX TY TZ RX RY RZ
   axis XYZ
   position 0 0 0  
   orientation 0 0 0 
:bonedata
  begin
     id 1 
     name lhipjoint
     direction 0.660183 -0.676772 0.325788 
     length 2.75133 
     axis 0 0 0  XYZ
  end
  begin
     id 2 
     name lfemur
     direction 0.34202 -0.939693 0  
     length 7.70317  
     axis 0 0 20  XYZ
    dof rx ry rz
    limits (-160.0 20.0)
           (-70.0 70.0)
           (-60.0 70.0)
  end
  begin
     id 3 
     name ltibia
     direction 0.342105 -0.939662 0   
     length 7.18701   
     axis 0 0 20   XYZ
    dof rx
    limits (-10.0 170.0)
  end
  begin
     id 4 
     name lfoot
     direction 0.14163 -0.389126 0.910232   
     length 2.41719   
     axis -90 7.62852e-016 20   XYZ
    dof rx rz
    limits (-45.0 90.0)
           (-70.0 20.0)
  end
  begin
     id 5 
     name ltoes
     direction 1.53533e-011 -4.21926e-011 1   
     length 1.18611   
     axis -90 7.62852e-016 20   XYZ
    dof rx
    limits (-90.0 20.0)
  end
  begin
     id 6 
     name rhipjoint
     direction -0.6658 -0.67229 0.323631   
     length 2.76968  
     axis 0 0 0  XYZ 
  end
  begin
     id 7 
     name rfemur
     direction -0.34202 -0.939693 0   
     length 7.92547   
     axis 0 0 -20   XYZ
    dof rx ry rz
    limits (-160.0 20.0)
           (-70.0 70.0)
           (-70.0 60.0)
  end
  begin
     id 8 
     name rtibia
     direction -0.342022 -0.939692 0   
     length 7.22641   
     axis 0 0 -20   XYZ
    dof rx
    limits (-10.0 170.0)
 end
 begin
     id 9 
     name rfoot
     direction -0.105675 -0.29034 0.951071   
     length 2.48149  
     axis -90 -7.62852e-016 -20   XYZ
    dof rx rz
    limits (-45.0 90.0)
           (-20.0 70.0)
  end
  begin
     id 10 
     name rtoes
     direction -1.5349e-011 -4.21859e-011 1   
     length 1.23343   
     axis -90 -7.62852e-016 -20   XYZ
    dof rx
    limits (-90.0 20.0)
  end
  begin
     id 11 
     name lowerback
     direction 0.0104173 0.993624 -0.112266   
     length 2.00527   
     axis 0 0 0   XYZ
    dof rx ry rz
    limits (-20.0 45.0)
           (-30.0 30.0)
           (-30.0 30.0)
  end
  begin
     id 12 
     name upperback
     direction 0.00733149 0.999856 -0.0152913   
     length 2.01385   
     axis 0 0 0   XYZ
    dof rx ry rz
    limits (-20.0 45.0)
           (-30.0 30.0)
           (-30.0 30.0)
  end
  begin
     id 13 
     name thorax
     direction 0.0026304 0.999318 0.036841   
     length 2.03734   
     axis 0 0 0   XYZ
    dof rx ry rz
    limits (-20.0 45.0)
           (-30.0 30.0)
           (-30.0 30.0)
  end
  begin
     id 14 
     name lowerneck
     direction 0.0293154 0.998757 0.0403082   
     length 1.65303   
     axis 0 0 0   XYZ
    dof rx ry rz
    limits (-20.0 45.0)
           (-30.0 30.0)
           (-30.0 30.0)
  end
  begin
     id 15 
     name upperneck
     direction -0.0376619 0.998184 -0.0470083   
     length 1.60926   
     axis 0 0 0   XYZ
    dof rx ry rz
    limits (-20.0 45.0)
           (-30.0 30.0)
           (-30.0 30.0)
  end
  begin
     id 16
     name head
     direction -0.0170133 0.999635 -0.0209778  
     length 1.73625  
     axis 0 0 0   XYZ
    dof rx ry rz
    limits (-20.0 45.0)
           (-30.0 30.0)
           (-30.0 30.0)
  end
  begin
     id 17 
     name lclavicle
     direction 0.919857 0.39181 -0.0186333  
     length 3.75313  
     axis 0 0 0   XYZ
    dof ry rz
    limits (-20.0 10.0)
           (0.0 20.0)
  end
  begin
     id 18 
     name lhumerus
     direction 1 -4.48988e-011 1.44029e-027   
     length 5.49313   
     axis 180 -30 -90   XYZ
    dof rx ry rz
    limits (-60.0 90.0)
           (-90.0 90.0)
           (-90.0 90.0)
  end
  begin
     id 19
     name lradius
     direction 1 -4.48924e-011 7.46281e-027   
     length 3.29037   
     axis 180 -30 -90   XYZ
    dof rx
    limits (-10.0 170.0)
  end
  begin
     id 20
     name lwrist
     direction 1 -4.48955e-011 2.19879e-026   
     length 1.64519   
     axis -1.34358e-014 90 90   XYZ
    dof ry
    limits (-180.0 0.0)
 end
  begin
     id 21 
     name lhand
     direction 1 -4.48978e-011 4.39747e-026   
     length 0.729656   
     axis -2.80598e-014 90 90   XYZ
    dof rx rz
    limits (-90.0 90.0)
           (-45.0 45.0)
  end
  begin
     id 22 
     name lfingers
     direction 1 -4.49071e-011 8.79411e-026   
     length 0.588268   
     axis -5.61193e-014 90 90   XYZ
    dof rx
    limits (0.0 90.0)
  end
  begin
     id 23
     name lthumb
     direction 0.707107 -6.34817e-011 0.707107   
     length 0.844638   
     axis -90 45 -9.86923e-015   XYZ
    dof rx rz
    limits (-45.0 45.0)
           (-45.0 45.0)
  end
  begin
     id 24 
     name rclavicle
     direction -0.919898 0.388279 0.0550233   
     length 3.7171  
     axis 0 0 0   XYZ 
    dof ry rz
    limits (-10.0 20.0)
           (-20.0 0.0)
  end
  begin
     id 25 
     name rhumerus
     direction -1 -4.48968e-011 9.98372e-028  
     length 5.23684   
     axis 180 30 90   XYZ
    dof rx ry rz
    limits (-90.0 60.0)
           (-90.0 90.0)
           (-90.0 90.0)
  end
  begin
     id 26 
     name rradius
     direction -1 -4.48956e-011 1.01023e-026   
     length 3.38251   
     axis 180 30 90   XYZ
    dof rx
    limits (-10.0 170.0)
  end
  begin
     id 27 
     name rwrist
     direction -1 -4.4892e-011 2.19886e-026   
     length 1.69126   
     axis -1.34358e-014 -90 -90   XYZ
    dof ry
    limits (-180.0 0.0)
  end
  begin
     id 28
     name rhand
     direction -1 -4.49024e-011 4.39727e-026   
     length 0.691454   
     axis -2.80598e-014 -90 -90   XYZ
    dof rx rz
    limits (-90.0 90.0)
           (-45.0 45.0)
  end
  begin
     id 29
     name rfingers
     direction -1 -4.49097e-011 8.79388e-026   
     length 0.557468   
     axis -5.61193e-014 -90 -90   XYZ
    dof rx
    limits (0.0 90.0)
  end
  begin
     id 30
     name rthumb
     direction -0.707107 -6.34938e-011 0.707107   
     length 0.800416   
     axis -90 -45 9.86923e-015   XYZ
    dof rx rz
    limits (-45.0 45.0)
           (-45.0 45.0)
  end
:hierarchy
  begin
    root lhipjoint rhipjoint lowerback
    lhipjoint lfemur
    lfemur ltibia
    ltibia lfoot
    lfoot ltoes
    rhipjoint rfemur
    rfemur rtibia
    rtibia rfoot
    rfoot rtoes
    lowerback upperback
    upperback thorax
    thorax lowerneck lclavicle rclavicle
    lowerneck upperneck
    upperneck head
    lclavicle lhumerus
    lhumerus lradius
    lradius lwrist
    lwrist lhand lthumb
    lhand lfingers
    rclavicle rhumerus
    rhumerus rradius
    rradius rwrist
    rwrist rhand rthumb
    rhand rfingers
  end

#!OML:ASF H:\BabyWalks\Project 1\Capture day 1\Session 1\baby.ASF
:FULLY-SPECIFIED
:DEGREES
245
root -21.382 16.8736 -2.0649 0.0737051 83.0396 -1.53618
lowerback 21.7738 2.29122 -7.66804
upperback 7.23792 1.71294 -4.73487
thorax -4.25127 1.09335 -1.19592
lowerneck -5.6243 -0.840293 3.15149
upperneck 3.31972 -1.57037 6.4411
head 2.0469 -0.527998 1.45526
rclavicle -1.74931e-014 3.33958e-014
rhumerus -51.2271 16.7884 -92.1125
rradius 52.2497
rwrist -8.38554
rhand -22.0532 -16.832
rfingers 7.12502
rthumb 4.3574 -46.7672
lclavicle -1.74931e-014 3.33958e-014
lhumerus -41.2399 -18.5663 72.46
lradius 45.9439
lwrist -6.97196
lhand -0.240311 2.95947
lfingers 7.12502
lthumb 25.3602 31.2931
rfemur -14.3955 1.61612 14.5074
rtibia 70.4047
rfoot -12.6473 9.72891
rtoes -15.3642
lfemur -21.9421 -1.24294 -17.4404
ltibia 47.9205
lfoot -30.3102 -11.8077
ltoes 5.8093
246
root -21.2361 16.8459 -2.06758 -0.553365 83.1718 -2.09103
lowerback 21.8825 2.12312 -7.66109
upperback 7.30153 1.49611 -4.70612
thorax -4.23018 0.98789 -1.11592
lowerneck -5.59749 -0.811149 3.06542
upperneck 3.14573 -1.51326 6.44155
head 1.98471 -0.507783 1.4709
rclavicle 2.22639e-014 4.29375e-014
rhumerus -51.1918 16.7759 -92.0331
rradius 51.762
rwrist -7.91344
rhand -21.395 -17.0082
rfingers 7.12502
rthumb 4.99293 -46.9293
lclavicle 2.22639e-014 4.29375e-014
lhumerus -39.6199 -18.6045 72.3462
lradius 46.0846
lwrist -7.67712
lhand -1.07798 2.73551
lfingers 7.12502
lthumb 24.5575 31.1806
rfemur -16.0869 1.16823 14.5955
rtibia 71.5049
rfoot -13.5285 10.0462
rtoes -15.9826
lfemur -21.4906 -1.43779 -17.4761
ltibia 48.3233
lfoot -30.9701 -11.6688
ltoes 6.00912
247
root -21.0907 16.821 -2.06872 -0.924079 83.3277 -2.3863
lowerback 22.0133 1.9561 -7.6776
upperback 7.34761 1.27138 -4.66918
thorax -4.23913 0.878855 -1.01293
lowerneck -5.57108 -0.772683 3.01621
upperneck 3.0027 -1.44682 6.39179
head 1.93149 -0.482755 1.46441
rclavicle -2.14687e-014 2.70347e-014
rhumerus -51.212 16.8148 -91.9687
rradius 51.2903
rwrist -7.50389
rhand -20.552 -17.2231
rfingers 7.12502
rthumb 5.80685 -47.1235
lclavicle -2.14687e-014 2.70347e-014
lhumerus -38.0977 -18.6155 72.242
lradius 46.4217
lwrist -8.08475
lhand -2.01347 2.62305
lfingers 7.12502
lthumb 23.6605 31.187
rfemur -17.7553 0.737127 14.6979
rtibia 72.3211
rfoot -14.4657 10.4732
rtoes -16.8621
lfemur -21.003 -1.66203 -17.5469
ltibia 48.6452
lfoot -31.5794 -11.5258
ltoes 6.1985
248
root -20.9455 16.799 -2.06774 -0.992184 83.5094 -2.37737
lowerback 22.1591 1.79085 -7.73743
upperback 7.38088 1.03719 -4.61626
thorax -4.26906 0.765115 -0.866235
lowerneck -5.56082 -0.721106 2.99369
upperneck 2.8968 -1.36669 6.29114
head 1.89214 -0.450461 1.43761
rclavicle -4.77083e-015 -1.59028e-014
rhumerus -51.2738 16.9125 -91.9092
rradius 50.8347
rwrist -7.14063
rhand -19.5402 -17.4654
rfingers 7.12502
rthumb 6.78367 -47.3368
lclavicle -4.77083e-015 -1.59028e-014
lhumerus -36.6811 -18.5989 72.1652
lradius 46.9573
lwrist -8.14862
lhand -3.02994 2.61834
lfingers 7.12502
lthumb 22.6852 31.305
rfemur -19.3978 0.316474 14.8114
rtibia 72.8671
rfoot -15.4212 10.8969
rtoes -17.7683
lfemur -20.4743 -1.91054 -17.654
ltibia 48.8745
lfoot -32.1365 -11.3891
ltoes 6.39935
249
root -20.8 16.7807 -2.06438 -0.818153 83.7245 -2.13067
lowerback 22.3105 1.62542 -7.81924
upperback 7.40093 0.79608 -4.55132
thorax -4.31488 0.64802 -0.692148
lowerneck -5.55927 -0.661187 2.99471
upperneck 2.82423 -1.2788 6.15751
head 1.86456 -0.413599 1.39665
rclavicle -7.15625e-015 -1.27222e-014
rhumerus -51.3817 17.041 -91.8568
rradius 50.392
rwrist -6.78253
rhand -18.4025 -17.6822
rfingers 7.12502
rthumb 7.88191 -47.5152
lclavicle -7.15625e-015 -1.27222e-014
lhumerus -35.3853 -18.6132 72.1214
lradius 47.7031
lwrist -7.82938
lhand -4.08547 2.80255
lfingers 7.12502
lthumb 21.6719 31.6096
rfemur -21.0099 -0.10361 14.946
rtibia 73.1518
rfoot -16.4002 11.2032
rtoes -18.6636
lfemur -19.9058 -2.17892 -17.785
ltibia 49.0043
lfoot -32.6434 -11.2684
ltoes 6.53893
250
root -20.6536 16.7667 -2.05861 -0.479793 83.9654 -1.72856
lowerback 22.4603 1.46131 -7.90798
upperback 7.40588 0.553395 -4.47452
thorax -4.37506 0.530169 -0.500331
lowerneck -5.56574 -0.596986 3.024
upperneck 2.788 -1.18896 5.98952
head 1.84972 -0.375007 1.34019
rclavicle -1.03368e-014 -3.33958e-014
rhumerus -51.5311 17.1799 -91.8087
rradius 49.9579
rwrist -6.41071
rhand -17.1551 -17.8598
rfingers 7.12502
rthumb 9.08567 -47.6441
lclavicle -1.03368e-014 -3.33958e-014
lhumerus -34.2129 -18.6886 72.1103
lradius 48.6497
lwrist -7.15012
lhand -5.16522 3.15326
lfingers 7.12502
lthumb 20.6347 32.0764
rfemur -22.5888 -0.513743 15.1126
rtibia 73.1833
rfoot -17.353 11.3271
rtoes -19.4208
lfemur -19.2932 -2.46096 -17.9252
ltibia 49.0257
lfoot -33.098 -11.1678
ltoes 6.6263
